<svg xmlns="http://www.w3.org/2000/svg" viewBox="0 0 421.22 647.16"><defs><style>.cls-1,.cls-4{fill:#231f20;}.cls-2,.cls-3{fill:#fff;}.cls-3{stroke:#fff;}.cls-3,.cls-4{stroke-miterlimit:10;stroke-width:0.5px;}.cls-4{stroke:#231f20;}</style></defs><g id="Layer_2" data-name="Layer 2"><g id="Layer_1-2" data-name="Layer 1"><g id="Layer_2-2" data-name="Layer 2"><g id="Layer_1-2-2" data-name="Layer 1-2"><rect class="cls-1" width="421.22" height="647.16"/><path class="cls-2" d="M123.72,60.86a3.07,3.07,0,0,1,1.7,1.1,23.4,23.4,0,0,1,1.4,2.37c.32.59.52.9,1.3.93v.65h-2.83a36.76,36.76,0,0,0-1.78-3.55c-.58-1-1-1.31-1.86-1.38v3.13c0,.86.26,1.13,1.16,1.15v.65h-4.4v-.65c1,0,1.18-.26,1.18-1.17v-7.4c0-.91-.22-1.16-1.18-1.18v-.67H123c2.34,0,4,.83,4,3.1,0,1.89-1.41,2.79-3.23,2.85Zm-1-5h-1.11v4.3h1.06c1.3,0,2-.48,2-2.18s-.55-2.16-2-2.16Z"/><path class="cls-2" d="M143.13,64.12c0,.91.19,1.14,1.2,1.16v.63h-4.4v-.63c1,0,1.2-.25,1.2-1.16V62.73l-2.2-3.95c-.4-.74-.6-.92-1.18-1v-.65h4.08v.65c-.64,0-.91.16-.91.44a1.1,1.1,0,0,0,.16.46l1.52,2.88h.08l1.44-2.9a1.19,1.19,0,0,0,.16-.48c0-.24-.22-.36-.85-.4v-.65h3v.65c-.62.08-.8.28-1.2,1l-2.14,3.95Z"/><path class="cls-2" d="M160.9,57.13l2.77,7.14c.31.8.5,1,1.09,1v.6h-4v-.6c.72,0,1-.2,1-.5a1.07,1.07,0,0,0-.09-.43l-.39-1h-3l-.35,1a2.07,2.07,0,0,0-.1.43c0,.36.27.5,1,.52v.6h-3.2v-.6c.64-.08.85-.23,1.16-1l2.67-7.14Zm-2.33,5.36h2.37l-.71-1.91a10,10,0,0,1-.45-1.69h-.06a10.29,10.29,0,0,1-.46,1.71Z"/><path class="cls-2" d="M183.24,65.91h-1.49l-3.09-4.51a12.93,12.93,0,0,1-1.33-2.35h-.08a22.72,22.72,0,0,1,.16,2.73v2.34c0,.91.2,1.14,1.14,1.16v.63h-3.46v-.63c.95,0,1.16-.25,1.16-1.16V59c0-.91-.21-1.13-1.16-1.15v-.67h3.17l2.82,4.29a10.36,10.36,0,0,1,1.06,2h.09a24.8,24.8,0,0,1-.16-2.86V59c0-.91-.19-1.13-1.15-1.15v-.67h3.46v.67c-.95,0-1.14.24-1.14,1.15Z"/><path class="cls-2" d="M208.12,65.21V63.15h1.41c.19,1.45.75,2.11,2.19,2.11s2.11-.72,2.11-1.92-.51-1.62-1.87-2L210.84,61c-1.65-.46-2.58-1.31-2.58-3.06,0-2.06,1.44-3.29,3.73-3.29a5.52,5.52,0,0,1,3.17.8v2H213.8c-.18-1.14-.61-1.88-2-1.88A1.59,1.59,0,0,0,210,56.94a1.22,1.22,0,0,0,0,.33c0,1,.48,1.46,1.73,1.81l1.1.3c1.68.45,2.85,1.39,2.85,3.27,0,2.21-1.47,3.49-4.13,3.49A6.07,6.07,0,0,1,208.12,65.21Z"/><path class="cls-2" d="M227.65,59c0-.91-.2-1.13-1.15-1.15v-.67h4.29v.67c-.94,0-1.14.24-1.14,1.15v5.17c0,.91.2,1.14,1.14,1.16V66H226.5v-.63c.95,0,1.15-.25,1.15-1.16Z"/><path class="cls-2" d="M249.77,65.91h-1.49l-3.09-4.51a12.36,12.36,0,0,1-1.33-2.35h-.08a22.72,22.72,0,0,1,.16,2.73v2.34c0,.91.19,1.14,1.14,1.16v.63h-3.46v-.63c.95,0,1.15-.25,1.15-1.16V59c0-.91-.2-1.13-1.15-1.15v-.67h3.17l2.82,4.29a10.1,10.1,0,0,1,1,2h.1a24.8,24.8,0,0,1-.16-2.86V59c0-.91-.19-1.13-1.15-1.15v-.67h3.45v.67c-.94,0-1.13.24-1.13,1.15Z"/><path class="cls-2" d="M267.46,63.47c0-.92-.19-1.14-1.15-1.16v-.67h4.07v.67c-.8,0-.92.29-.92,1.16v1.89a7.2,7.2,0,0,1-3.44.75c-2.77,0-4.42-1.52-4.42-4.52S263.35,57,266.25,57a6,6,0,0,1,3,.69v2h-1.33c-.19-1.09-.61-1.71-1.81-1.71-1.59,0-2.34,1.1-2.34,3.57s.64,3.78,2.39,3.78a2,2,0,0,0,1.29-.36Z"/><path class="cls-2" d="M284.13,65h1.56c1.15,0,1.5-.24,1.63-1.79h.94v2.7H281v-.63c1,0,1.15-.25,1.15-1.16V59c0-.91-.19-1.13-1.15-1.15v-.67H288l.17,2.4h-.91c-.38-1.3-.56-1.46-1.6-1.46h-1.46V61h.52c.94,0,1.1,0,1.13-.88h.85v2.63h-.85c0-.82-.19-.9-1.12-.9h-.53Z"/><path class="cls-2" d="M304.2,62a2.82,2.82,0,0,1,1.8,1.19c.22.34.41.72.75,1.3a1.16,1.16,0,0,0,1.22.77v.65H305.2c-.4-.91-.77-1.66-1.11-2.3-.61-1.1-1-1.46-1.87-1.47v2c0,1,.3,1.14,1.25,1.16v.63h-4.4V65.3c.94,0,1.15-.25,1.15-1.16V59c0-.91-.21-1.13-1.15-1.15v-.67h4.41c2,0,3.49.51,3.49,2.51,0,1.67-1.2,2.26-2.78,2.3ZM303,58.07h-.75v3.2h.94c1.3,0,1.76-.38,1.76-1.63S304.45,58.07,303,58.07Z"/><path class="cls-2" d="M60.23,214.69v-9.06h4.3c1,6.72,3.47,10,11.77,10,8.45,0,11.54-4.3,11.54-10,0-6.57-2.86-8.45-10-10.64l-5.21-1.59c-7.24-2.18-11.39-6.26-11.39-13.43,0-8.6,6-14.48,16.37-14.48,7.25,0,11.25,1.73,13.81,3.62V177h-4c-.9-5.06-3.24-8.38-10.79-8.38-6.26,0-10.11,3.39-10.11,9s2.79,7.63,9.43,9.59l5.29,1.58C88.4,191,93.53,195.06,93.53,203c0,10-6.33,15.77-18.26,15.77C67.62,218.69,63,216.42,60.23,214.69Z"/><path class="cls-2" d="M110.41,187c3.77-3.78,7.55-6.64,13-6.64,5.74,0,9.74,3.47,9.74,9.88v20c0,4.37.9,5.2,4.9,5.5v2.12H122v-2.12c4.31-.37,5.29-1.35,5.29-5V191.6c0-4.6-2-6.41-6-6.41-4.68,0-7.7,2.33-10.87,5.43v20.14c0,3.63,1,4.61,5.28,5v2.12H99.17v-2.12c4-.37,5.28-1.28,5.28-5.5V174c0-5.51-1.36-6.41-5.74-6.64v-2l9.89-2h1a29,29,0,0,1,.83,7.24Z"/><path class="cls-2" d="M176.89,215.44v2.19a16.58,16.58,0,0,1-4.75.68c-5,0-6-2.49-6.57-6.26-1.51,3-5.21,6.86-10.64,6.86-6.94,0-11.69-3.77-11.69-10.48,0-8.91,7.77-11.93,19.31-11.93.91,0,2.12,0,3.1.08V193c0-6.64-1.59-9.58-7.32-9.58-6.64,0-8.61,3.24-9.21,6.79h-3.85V183.8a31.54,31.54,0,0,1,13.66-3.7c8.15,0,12.68,3.77,12.68,12.45,0,2.49-.31,8.83-.31,15.62C171.3,213.78,172.29,215,176.89,215.44Zm-11.4-15.69c-.82-.08-2-.15-3.09-.15-8.9,0-12.75,2.41-12.75,8.3,0,5.43,2.26,7.17,6.94,7.17,3.77,0,6.87-2.95,8.68-6.12Z"/><path class="cls-2" d="M203.15,180.36c8.07,0,14.19,5.66,14.19,18.48,0,11.77-5.14,19.39-14.94,19.39a14.49,14.49,0,0,1-10.87-4.75V225.1c0,4,1.28,5.13,5.89,5.43v2.12H180.29v-2.12c4-.37,5.28-1.28,5.28-5.5V191.67c0-5.43-1.13-6.41-5.51-6.64v-1.88l9-2.87h1a23.35,23.35,0,0,1,1.13,6.26C194.09,183.07,199.08,180.36,203.15,180.36Zm-1.36,4.37c-3.7,0-7.09,2-10.26,5.51v19.62C193.94,212.8,198,215,201,215c6.34,0,9.81-3.09,9.81-14.71C210.85,188.51,208.21,184.73,201.79,184.73Z"/><path class="cls-2" d="M251.59,211.67l1.21,2.11c-3.54,2.72-7.77,4.91-12.9,4.91-10.49,0-16.83-7.17-16.83-19.39s6.72-19.25,15.77-19.25c9.21,0,14.64,6.49,14.64,17.81v1.81H229.41c.15,11.32,4.08,14.94,12.3,14.94A20.43,20.43,0,0,0,251.59,211.67Zm-22.1-15.24h17.73c0-9.51-2.49-13.21-8.53-13.21-5.36,0-8.6,3.17-9.2,13.21Z"/><path class="cls-2" d="M312.49,174.47c0-4.15-1.51-5.58-6.41-6v-2.19h16v2.19c-4.22.38-5.43,1.81-5.43,6v26.71c0,12.3-6.11,17.51-17.21,17.51-12.22,0-18.18-5.89-18.18-17V174.47c0-4.3-1.06-5.73-5.66-6v-2.19h18.34v2.19c-5.59.23-6.42,1.58-6.42,6v25.58c0,10.19,2.87,14.56,13,14.56,8.68,0,12-3.92,12-13.43Z"/><path class="cls-2" d="M347.65,180.36c8.08,0,14.19,5.66,14.19,18.48,0,11.77-5.13,19.39-14.94,19.39a14.47,14.47,0,0,1-10.9-4.75V225.1c0,4,1.29,5.13,5.89,5.43v2.12h-17.1v-2.12c4-.37,5.28-1.28,5.28-5.5V191.67c0-5.43-1.13-6.41-5.51-6.64v-1.88l9-2.87h1a23,23,0,0,1,1.14,6.26C338.6,183.07,343.58,180.36,347.65,180.36Zm-1.35,4.37c-3.7,0-7.1,2-10.27,5.51v19.62c2.42,2.94,6.49,5.13,9.51,5.13,6.34,0,9.81-3.09,9.81-14.71C355.35,188.51,352.71,184.73,346.3,184.73Z"/><path class="cls-2" d="M64.56,267.3v-3h1.7c.32,2.16,1,3.24,3.68,3.24s3.62-1.38,3.62-3.19c0-2.09-.91-2.71-3.17-3.4l-1.7-.51c-2.48-.76-3.81-2.07-3.81-4.45,0-2.8,2.06-4.8,5.48-4.8A7.41,7.41,0,0,1,75,252.41V255H73.4c-.3-1.65-1-2.73-3.37-2.73-1.94,0-3.15,1.08-3.15,2.88s.89,2.41,3,3l1.72.52c2.38.71,4.11,2.07,4.11,4.69,0,3.25-2.17,5.22-6.1,5.22A9,9,0,0,1,64.56,267.3Z"/><path class="cls-2" d="M83.79,257.67H81.18v7.42c0,1.92.34,2.36,1.57,2.36a4.43,4.43,0,0,0,1.4-.24l.2.88a5.18,5.18,0,0,1-2.43.64c-1.85,0-3-.86-3-3.32v-7.74H77.47v-.79l1.65-.56a10.77,10.77,0,0,1,1.15-3.4l1.16-.29a30.33,30.33,0,0,0-.22,3.69h2.92Z"/><path class="cls-2" d="M91,268.68c-3.29,0-5.65-2.36-5.65-6.36S87.7,256,90.94,256c3.64,0,5.7,2.78,5.7,6.49S94.26,268.68,91,268.68Zm0-11.53c-2.46,0-3.19,1.87-3.19,4.92,0,3.71.88,5.41,3.29,5.41,2.11,0,3.2-1.77,3.2-4.94-.06-3.76-1.22-5.39-3.36-5.39Z"/><path class="cls-2" d="M105.84,256c2.71,0,4.77,1.87,4.77,6.1,0,3.83-1.77,6.39-5,6.39a4.58,4.58,0,0,1-3.4-1.4v3.56c0,1.33.25,1.62,1.92,1.7v.83H98.25v-.83c1.4-.1,1.72-.32,1.72-1.72V259.81c0-1.8-.35-2-1.8-2.09V257l3.15-1h.37a7.17,7.17,0,0,1,.39,2A5.13,5.13,0,0,1,105.84,256Zm-.44,1.58a4.23,4.23,0,0,0-3.2,1.57v6.66a4,4,0,0,0,2.88,1.47c2,0,3.12-1,3.12-4.72s-.81-5-2.8-5Z"/><path class="cls-2" d="M125,260.42a4.3,4.3,0,0,1,2.48,1.62c.64.82,1.57,2.46,2.53,4.06a2.19,2.19,0,0,0,2.14,1.43v.86h-3.64c-1.1-2.17-2.09-4.21-3.15-5.88-.93-1.47-1.62-2.09-3.12-2.14v5.34c0,1.3.4,1.77,1.92,1.82v.86h-6.22v-.86c1.65,0,2-.47,2-1.87V254.18c0-1.4-.32-1.82-2-1.87v-.86H124c3.66,0,6.12,1.18,6.12,4.57,0,2.8-2.21,4.25-5.16,4.3Zm-.82-7.77h-1.94v6.84h1.82c2.16,0,3.62-.81,3.62-3.44s-1-3.4-3.5-3.4Z"/><path class="cls-2" d="M143.39,265c0,1.8.34,2,1.79,2.09v.74l-3,.89h-.37a7.56,7.56,0,0,1-.54-2.19,5.38,5.38,0,0,1-4.11,2.16c-2,0-3.39-1-3.39-3.27v-5.6c0-1.8-.37-2-1.72-2.09V257l3.42-1H136v9c0,1.53.66,2,1.84,2a4.27,4.27,0,0,0,3.27-1.57v-5.6c0-1.8-.37-2-1.72-2.09V257l3.42-1h.54Z"/><path class="cls-2" d="M157.92,265.83c0,1.4.29,1.62,1.6,1.72v.84H154v-.84c1.55-.07,1.72-.34,1.72-1.55v-6.24c0-1.45-.61-2-1.79-2a4.5,4.5,0,0,0-3.39,1.55V266c0,1.21.17,1.48,1.72,1.55v.84h-5.68v-.84c1.4-.1,1.72-.32,1.72-1.72v-6c0-1.8-.35-2-1.8-2.09V257l3.15-1H150a6.84,6.84,0,0,1,.42,2.14,5.58,5.58,0,0,1,4.2-2.12,3.06,3.06,0,0,1,3.32,2.78,4.51,4.51,0,0,1,0,.52Z"/><path class="cls-2" d="M172.25,265.83c0,1.4.3,1.62,1.6,1.72v.84H168.3v-.84c1.54-.07,1.72-.34,1.72-1.55v-6.24c0-1.45-.62-2-1.8-2a4.5,4.5,0,0,0-3.39,1.55V266c0,1.21.17,1.48,1.72,1.55v.84h-5.68v-.84c1.4-.1,1.72-.32,1.72-1.72v-6c0-1.8-.34-2-1.79-2.09V257l3.14-1h.37a6.27,6.27,0,0,1,.42,2.14,5.61,5.61,0,0,1,4.2-2.12,3.06,3.06,0,0,1,3.32,2.78,4.51,4.51,0,0,1,0,.52Z"/><path class="cls-2" d="M175.21,268.39v-.84c1.4-.1,1.72-.32,1.72-1.72v-6c0-1.8-.35-2-1.8-2.09V257l3.67-1h.37v9.83c0,1.4.17,1.65,1.72,1.72v.84Zm2.68-14.29a1.55,1.55,0,1,1,1.52-1.58v0a1.52,1.52,0,0,1-1.5,1.54Z"/><path class="cls-2" d="M193.62,265.83c0,1.4.3,1.62,1.6,1.72v.84h-5.56v-.84c1.55-.07,1.72-.34,1.72-1.55v-6.24c0-1.45-.61-2-1.79-2a4.5,4.5,0,0,0-3.39,1.55V266c0,1.21.17,1.48,1.72,1.55v.84h-5.68v-.84c1.4-.1,1.72-.32,1.72-1.72v-6c0-1.8-.34-2-1.79-2.09V257l3.14-1h.37a6.84,6.84,0,0,1,.42,2.14,5.61,5.61,0,0,1,4.2-2.12,3.06,3.06,0,0,1,3.32,2.78,4.51,4.51,0,0,1,0,.52Z"/><path class="cls-2" d="M196.7,270.21a2.06,2.06,0,0,1,1.25-1.73h1a3.08,3.08,0,0,0-.27,1.27c0,1.38.74,2.14,3.1,2.14,2.58,0,3.44-1,3.44-2.28,0-1.5-.61-1.82-3.83-1.9-.86,0-1.72-.1-2.19-.14a1.81,1.81,0,0,1-1.6-1.92c0-1,1-1.67,2.29-2.12A3.61,3.61,0,0,1,197,260c0-2.38,1.8-4,4.62-4a6.23,6.23,0,0,1,1.92.27,6.8,6.8,0,0,0,1.84.4,3.36,3.36,0,0,0,2-.77l.83,1.6a3.82,3.82,0,0,1-1.72.44,4.12,4.12,0,0,1-1.72-.46,3.32,3.32,0,0,1,1.47,2.6c0,1.63-1,3.57-4.59,3.74h-.54c-.89.25-1.5.74-1.5,1.28,0,.37.29.62.88.62h2.26c2.88,0,4.53.78,4.53,3.39,0,2.41-2.36,3.93-5.41,3.93C198.47,273,196.7,271.7,196.7,270.21ZM203.83,260c0-2-.72-2.85-2.27-2.85s-2.23.83-2.23,2.78.81,2.77,2.26,2.77S203.83,261.85,203.83,260Z"/><path class="cls-2" d="M214.72,268.39v-.84c1.4-.1,1.72-.32,1.72-1.72v-6c0-1.8-.34-2-1.79-2.09V257l3.66-1h.37v9.83c0,1.4.17,1.65,1.72,1.72v.84Zm2.68-14.29a1.55,1.55,0,1,1,1.52-1.58v0a1.52,1.52,0,0,1-1.48,1.54Z"/><path class="cls-2" d="M233.13,265.83c0,1.4.3,1.62,1.6,1.72v.84h-5.55v-.84c1.54-.07,1.72-.34,1.72-1.55v-6.24c0-1.45-.62-2-1.8-2a4.5,4.5,0,0,0-3.39,1.55V266c0,1.21.17,1.48,1.72,1.55v.84h-5.68v-.84c1.4-.1,1.72-.32,1.72-1.72v-6c0-1.8-.34-2-1.79-2.09V257l3.14-1h.37a6.27,6.27,0,0,1,.42,2.14,5.61,5.61,0,0,1,4.2-2.12,3.06,3.06,0,0,1,3.32,2.78,4.51,4.51,0,0,1,0,.52Z"/><path class="cls-2" d="M242,260.05c0-5.65,2.92-8.9,7.27-8.9,2.68,0,4,.52,4.87,1.16v2.75h-1.72c-.47-1.89-1.18-2.75-3.22-2.75-2.83,0-4.62,2-4.62,7.69,0,5.9,1.87,7.5,4.89,7.5,1.94,0,2.83-.74,3.2-2.65h1.59v2.58a8.08,8.08,0,0,1-4.79,1.23C244.32,268.66,242,265.34,242,260.05Z"/><path class="cls-2" d="M255.81,268.39v-.84c1.4-.1,1.72-.32,1.72-1.72v-6c0-1.8-.35-2-1.8-2.09V257l3.67-1h.36v9.83c0,1.4.18,1.65,1.73,1.72v.84Zm2.68-14.29a1.55,1.55,0,1,1,1.52-1.58v0a1.52,1.52,0,0,1-1.5,1.54Z"/><path class="cls-2" d="M270,255.92a2.1,2.1,0,0,1,.74.13l-.54,2.43a2,2,0,0,0-.76-.12c-2,0-2.68.78-2.68,3.17v4.3c0,1.4.24,1.65,2.09,1.72v.84H262.8v-.84c1.4-.1,1.72-.32,1.72-1.72v-6c0-1.8-.34-2-1.8-2.09V257l3.15-1h.37a8.31,8.31,0,0,1,.42,2.8C267.66,257.1,268.71,255.92,270,255.92Z"/><path class="cls-2" d="M281,259.24h-1.67c-.24-1.45-.71-2.09-2.06-2.09-1.87,0-3.15,1.23-3.15,4.89,0,3.94,1.13,5.26,3.42,5.26a4.47,4.47,0,0,0,3.27-1.35l.63.69a5.45,5.45,0,0,1-4.25,2c-3,0-5.5-2-5.5-6.12s2.43-6.52,5.63-6.52a6.39,6.39,0,0,1,3.68,1Z"/><path class="cls-2" d="M286.86,265.76c0,1.45.22,1.72,1.82,1.79v.84h-5.87v-.84c1.49-.1,1.82-.32,1.82-1.72V254c0-1.79-.42-2-2-2.09v-.79l3.54-.71h.37a8.76,8.76,0,0,1,.29,2.44Z"/><path class="cls-2" d="M299.7,266.15l.51.83a7.09,7.09,0,0,1-4.37,1.68c-3.52,0-5.63-2.36-5.63-6.39s2.26-6.35,5.28-6.35,4.92,2.14,4.92,5.88v.66h-7.84c.05,3.57,1.27,4.72,3.86,4.72A6.77,6.77,0,0,0,299.7,266.15Zm-7.11-4.89h5.48c0-3-.76-4.16-2.63-4.16-1.67,0-2.68,1-2.85,4.16Z"/><path class="cls-2" d="M302.11,267.65v-2.39h1.64c.18,1.68.91,2.29,2.63,2.29,1.41,0,2.54-.57,2.54-2.14,0-1.33-.72-1.79-2.12-2.14l-1.45-.34c-1.84-.44-3.12-1.43-3.12-3.42,0-2.31,1.94-3.54,4.3-3.54a7.88,7.88,0,0,1,3.69.86v2.22h-1.57a2.09,2.09,0,0,0-2.21-2h-.1c-1.45,0-2.27.72-2.27,1.9,0,1,.47,1.59,2,1.94l1.45.34c2.31.54,3.37,1.58,3.37,3.35,0,2.45-1.82,4.05-4.7,4.05A7.23,7.23,0,0,1,302.11,267.65Z"/><path class="cls-2" d="M329.47,267.45v.81a5.17,5.17,0,0,1-1.7.27c-1.74,0-2.11-.71-2.23-1.74a3.9,3.9,0,0,1-3.37,2c-2.36,0-4-1.26-4-3.52,0-2.95,2.58-4,6.44-4h.86v-1.08c0-2.12-.49-3.05-2.23-3.05-2.07,0-2.66,1.08-2.85,2.21h-1.55V257.2a10.71,10.71,0,0,1,4.59-1.25c2.76,0,4.28,1.25,4.28,4.13,0,.74-.1,2.85-.1,5.09C327.65,267,327.87,267.33,329.47,267.45Zm-4.87-5c-2.8,0-4,.76-4,2.63s.69,2.28,2.11,2.28a3.24,3.24,0,0,0,2.68-1.79l.07-3.07c-.29,0-.57-.05-.86-.06Z"/><path class="cls-2" d="M342,265.83c0,1.4.3,1.62,1.6,1.72v.84H338v-.84c1.55-.07,1.72-.34,1.72-1.55v-6.24c0-1.45-.61-2-1.79-2a4.5,4.5,0,0,0-3.39,1.55V266c0,1.21.17,1.48,1.72,1.55v.84h-5.68v-.84c1.4-.1,1.72-.32,1.72-1.72v-6c0-1.8-.34-2-1.8-2.09V257l3.15-1h.37a6.84,6.84,0,0,1,.42,2.14,5.58,5.58,0,0,1,4.2-2.12A3.06,3.06,0,0,1,342,258.8a4.51,4.51,0,0,1,0,.52Z"/><path class="cls-2" d="M350,268.63c-2.51,0-4.84-1.69-4.84-6.17,0-3.83,1.89-6.44,5-6.44a4.51,4.51,0,0,1,3.34,1.48V254c0-1.79-.42-2-1.87-2.09v-.79l3.59-.71h.52V265c0,1.8.36,2,1.94,2.09v.74l-3.12.89h-.37a6.36,6.36,0,0,1-.54-2.14A5.09,5.09,0,0,1,350,268.63Zm.39-1.37a4.47,4.47,0,0,0,3.15-1.77v-6.67a4,4,0,0,0-3-1.4c-1.86,0-3,.91-3,4.75s.89,5.09,2.83,5.09Z"/><path class="cls-2" d="M90.54,296.81v-3.05h1.69c.32,2.17,1.06,3.25,3.69,3.25s3.61-1.38,3.61-3.2c0-2.09-.91-2.7-3.17-3.39l-1.69-.52c-2.49-.76-3.81-2.06-3.81-4.45,0-2.8,2.06-4.79,5.48-4.79a7.43,7.43,0,0,1,4.64,1.25v2.63H99.39c-.3-1.64-1-2.72-3.37-2.72-1.94,0-3.15,1.08-3.15,2.87s.89,2.41,3,3.05l1.72.52c2.38.71,4.1,2.06,4.1,4.69,0,3.25-2.16,5.21-6.09,5.21A8.86,8.86,0,0,1,90.54,296.81Z"/><path class="cls-2" d="M107.33,287.54a5.49,5.49,0,0,1,4.1-2,3,3,0,0,1,3.32,2.65,3.42,3.42,0,0,1,0,.64v6.52c0,1.4.3,1.62,1.6,1.72v.83H110.8v-.83c1.54-.08,1.72-.35,1.72-1.55v-6.25c0-1.45-.62-2-1.8-2a4.5,4.5,0,0,0-3.39,1.55v6.71c0,1.2.17,1.47,1.72,1.55v.83h-5.68v-.83c1.4-.1,1.72-.32,1.72-1.72v-11.8c0-1.8-.42-2-1.87-2.09v-.79l3.45-.71H107a8.31,8.31,0,0,1,.3,2.43Z"/><path class="cls-2" d="M117.71,297.89v-.83c1.4-.1,1.72-.32,1.72-1.72v-6c0-1.79-.35-2-1.8-2.09v-.73l3.67-1h.36v9.84c0,1.4.18,1.64,1.73,1.72v.83Zm2.68-14.28a1.55,1.55,0,1,1,1.52-1.58v0a1.53,1.53,0,0,1-1.51,1.55Z"/><path class="cls-2" d="M132.33,285.53c2.71,0,4.77,1.87,4.77,6.09,0,3.84-1.77,6.4-5,6.4a4.52,4.52,0,0,1-3.39-1.41v3.57c0,1.33.24,1.62,1.91,1.69v.84h-5.87v-.84c1.4-.09,1.72-.31,1.72-1.72V289.31c0-1.79-.34-2-1.8-2.09v-.73l3.15-1h.37a7.62,7.62,0,0,1,.39,2A5.13,5.13,0,0,1,132.33,285.53Zm-.44,1.57a4.22,4.22,0,0,0-3.19,1.57v6.67a4,4,0,0,0,2.87,1.47c2,0,3.12-1,3.12-4.72S133.88,287.1,131.89,287.1Z"/><path class="cls-2" d="M155.1,287.13a25.4,25.4,0,0,1-.51-3h-.1c-.08.47-.3,1.82-.57,3l-2.53,10.76H149L145.88,284c-.34-1.57-.68-2-2-2.16V281h5.92v.86c-1.2.09-1.72.34-1.72,1.08a3.25,3.25,0,0,0,.08.69l1.62,7.32c.34,1.55.59,3.64.66,4.33h.15c.1-.49.44-2.29.93-4.33L154,281h1.84l2.48,10c.47,1.86.86,3.73,1,4.3h.14c.08-.47.4-2.46.79-4.3l1.5-6.81a5.58,5.58,0,0,0,.12-1c0-.94-.51-1.23-1.79-1.3V281h5.14v.86c-1.18.17-1.6.83-2,2.38L160,297.89h-2.26Z"/><path class="cls-2" d="M170.52,298.19c-3.29,0-5.65-2.36-5.65-6.37s2.36-6.37,5.6-6.37c3.64,0,5.7,2.78,5.7,6.49C176.17,295.85,173.79,298.19,170.52,298.19Zm-.05-11.53c-2.46,0-3.19,1.87-3.19,4.91,0,3.72.88,5.41,3.29,5.41,2.11,0,3.19-1.77,3.19-4.94C173.76,288.28,172.61,286.66,170.47,286.66Z"/><path class="cls-2" d="M185,285.43a2.34,2.34,0,0,1,.74.12L185.2,288a1.84,1.84,0,0,0-.77-.13c-2,0-2.68.79-2.68,3.17v4.31c0,1.4.25,1.64,2.09,1.72v.83h-6v-.83c1.4-.1,1.72-.32,1.72-1.72v-6c0-1.79-.35-2-1.8-2.09v-.73l3.15-1h.37a8.41,8.41,0,0,1,.42,2.81C182.59,286.61,183.65,285.43,185,285.43Z"/><path class="cls-2" d="M186.73,297.06c1.4-.1,1.72-.32,1.72-1.72v-11.8c0-1.8-.42-2-1.87-2.09v-.79L190,280h.37a8.65,8.65,0,0,1,.29,2.43v13.13c0,1.2.18,1.47,1.72,1.55v.83h-5.67Zm4.17-5.61,3.37-3.44c.81-.81.47-1.3-.66-1.35v-.84h4.62v.84c-1,.1-1.67.88-2.83,2l-2.26,2.24,3.71,4.67a3.21,3.21,0,0,0,2.17,1.48v.83h-3Z"/><path class="cls-2" d="M211.58,287.17H209v7.43c0,1.92.34,2.36,1.57,2.36a4.44,4.44,0,0,0,1.4-.25l.2.89a5.18,5.18,0,0,1-2.43.64c-1.85,0-3-.86-3-3.32v-7.75h-1.47v-.78l1.64-.57a10.49,10.49,0,0,1,1.16-3.39l1.15-.29a32.31,32.31,0,0,0-.22,3.68h2.93Z"/><path class="cls-2" d="M217.17,287.54a5.49,5.49,0,0,1,4.1-2,3,3,0,0,1,3.32,2.65,3.42,3.42,0,0,1,0,.64v6.52c0,1.4.29,1.62,1.6,1.72v.83h-5.56v-.83c1.55-.08,1.72-.35,1.72-1.55v-6.25c0-1.45-.61-2-1.79-2a4.5,4.5,0,0,0-3.39,1.55v6.71c0,1.2.17,1.47,1.72,1.55v.83h-5.68v-.83c1.4-.1,1.72-.32,1.72-1.72v-11.8c0-1.8-.42-2-1.87-2.09v-.79l3.44-.71h.37a9,9,0,0,1,.3,2.43Z"/><path class="cls-2" d="M239,297v.81a5.11,5.11,0,0,1-1.69.27c-1.75,0-2.12-.71-2.24-1.75a3.9,3.9,0,0,1-3.37,2c-2.36,0-4-1.25-4-3.51,0-2.95,2.59-4,6.44-4H235v-1.08c0-2.11-.49-3.05-2.23-3.05-2.07,0-2.66,1.08-2.85,2.22h-1.55v-2.19a10.65,10.65,0,0,1,4.59-1.26c2.76,0,4.28,1.26,4.28,4.13,0,.74-.1,2.86-.1,5.09C237.15,296.52,237.38,296.84,239,297Zm-4.86-5c-2.81,0-4,.77-4,2.63s.69,2.29,2.11,2.29a3.24,3.24,0,0,0,2.68-1.79L235,292c-.38,0-.57-.06-.89-.06Z"/><path class="cls-2" d="M246.4,287.17h-2.61v7.43c0,1.92.35,2.36,1.58,2.36a4.44,4.44,0,0,0,1.4-.25l.2.89a5.22,5.22,0,0,1-2.44.64c-1.84,0-3-.86-3-3.32v-7.75h-1.48v-.78l1.65-.57a10.71,10.71,0,0,1,1.15-3.39l1.16-.29a32.31,32.31,0,0,0-.22,3.68h2.92Z"/><path class="cls-2" d="M271.48,281.82c-1.8.09-2.07.61-2,1.86l1,11.41c.13,1.43.35,1.89,1.75,1.94v.86H266.4V297c1.7,0,1.92-.54,1.82-1.77l-.71-9c-.07-.77-.07-1.8-.07-2.41v-.5h-.15a20.61,20.61,0,0,1-.57,2.68L263,297.85h-1.48L258,286.58a30.25,30.25,0,0,1-.72-3.24h-.14c0,.34-.05,1.62-.15,3.24l-.49,8.66c-.08,1.2-.1,1.77,1.79,1.79v.86h-5.11V297c1.4,0,1.65-.46,1.77-1.94l.83-11.41c.1-1.25-.14-1.79-2-1.86V281h4.74l3.57,11.13a14.52,14.52,0,0,1,.56,2.85h.15a17,17,0,0,1,.57-2.82L266.71,281h4.77Z"/><path class="cls-2" d="M284.68,297v.81A5,5,0,0,1,283,298c-1.75,0-2.12-.71-2.24-1.75a3.9,3.9,0,0,1-3.37,2c-2.36,0-4-1.25-4-3.51,0-2.95,2.59-4,6.44-4h.86v-1.08c0-2.11-.49-3.05-2.23-3.05-2.07,0-2.66,1.08-2.85,2.22h-1.55v-2.19a10.65,10.65,0,0,1,4.59-1.26c2.76,0,4.28,1.26,4.28,4.13,0,.74-.1,2.86-.1,5.09C282.86,296.52,283.09,296.84,284.68,297Zm-4.86-5c-2.81,0-4,.77-4,2.63s.69,2.29,2.11,2.29a3.24,3.24,0,0,0,2.68-1.79l.08-3.08a5.75,5.75,0,0,0-.87-.11Z"/><path class="cls-2" d="M292.11,287.17H289.5v7.43c0,1.92.35,2.36,1.58,2.36a4.44,4.44,0,0,0,1.4-.25l.2.89a5.22,5.22,0,0,1-2.44.64c-1.84,0-3-.86-3-3.32v-7.75h-1.48v-.78l1.65-.57a10.71,10.71,0,0,1,1.15-3.39l1.16-.29a32.31,32.31,0,0,0-.22,3.68h2.92Z"/><path class="cls-2" d="M300,287.17h-2.6v7.43c0,1.92.34,2.36,1.57,2.36a4.44,4.44,0,0,0,1.4-.25l.2.89a5.22,5.22,0,0,1-2.44.64c-1.84,0-3-.86-3-3.32v-7.75h-1.48v-.78l1.65-.57a10.49,10.49,0,0,1,1.16-3.39l1.15-.29a32.31,32.31,0,0,0-.22,3.68h2.93Z"/><path class="cls-2" d="M311,295.65l.52.84a7.17,7.17,0,0,1-4.38,1.67c-3.51,0-5.63-2.36-5.63-6.39s2.26-6.34,5.29-6.34,4.92,2.14,4.92,5.87v.7h-7.85c0,3.56,1.28,4.72,3.86,4.72A6.58,6.58,0,0,0,311,295.65Zm-7.1-4.89h5.48c0-3-.76-4.15-2.63-4.15-1.63,0-2.64,1-2.81,4.15Z"/><path class="cls-2" d="M320.46,285.43a2.34,2.34,0,0,1,.74.12l-.54,2.44a1.84,1.84,0,0,0-.77-.13c-2,0-2.67.79-2.67,3.17v4.31c0,1.4.24,1.64,2.08,1.72v.83h-6v-.83c1.4-.1,1.72-.32,1.72-1.72v-6c0-1.79-.35-2-1.8-2.09v-.73l3.15-1h.37a8.41,8.41,0,0,1,.42,2.81C318.08,286.61,319.13,285.43,320.46,285.43Z"/><path class="cls-2" d="M322.53,297.15v-2.38h1.64c.17,1.67.91,2.29,2.63,2.29,1.4,0,2.54-.57,2.54-2.14,0-1.33-.72-1.8-2.12-2.14l-1.45-.34c-1.84-.45-3.12-1.43-3.12-3.42,0-2.31,1.94-3.54,4.3-3.54a7.76,7.76,0,0,1,3.69.86v2.21h-1.58a2.08,2.08,0,0,0-2.2-1.95h-.11c-1.45,0-2.26.71-2.26,1.89,0,1,.47,1.6,2,1.94l1.45.35c2.31.54,3.37,1.57,3.37,3.34,0,2.46-1.82,4.06-4.7,4.06A7.14,7.14,0,0,1,322.53,297.15Z"/><path class="cls-2" d="M188.27,587.14h4.64c2.58,0,3.92,1.06,3.92,3.07v.07a2.43,2.43,0,0,1-1.92,2.53,2.6,2.6,0,0,1,2.37,2.78v.06c0,2.17-1.42,3.31-4.15,3.31h-4.86Zm4.21,4.86c1.29,0,1.81-.46,1.81-1.52v-.07c0-1-.57-1.43-1.82-1.43h-1.59v3Zm.23,5.11c1.33,0,1.92-.6,1.92-1.67v-.07c0-1.09-.59-1.65-2-1.65h-1.7v3.39Z"/><path class="cls-2" d="M198,596.56c0-2,1.86-2.77,4.5-2.77h1v-.35c0-1-.32-1.59-1.41-1.59a1.3,1.3,0,0,0-1.46,1.12s0,.07,0,.1H198.3c.15-2.05,1.77-3,3.89-3s3.62.86,3.62,3.2V599h-2.33v-1a3,3,0,0,1-2.61,1.22C199.3,599.14,198,598.38,198,596.56Zm5.48-.63v-.72h-.93c-1.39,0-2.2.29-2.2,1.22,0,.63.38,1,1.26,1a1.58,1.58,0,0,0,1.84-1.5Z"/><path class="cls-2" d="M206.82,596.25h2.23c.1.77.48,1.22,1.52,1.22s1.36-.35,1.36-.94-.51-.84-1.75-1c-2.3-.34-3.19-1-3.19-2.69s1.65-2.69,3.42-2.69,3.35.69,3.57,2.67h-2.2c-.13-.71-.53-1-1.36-1s-1.22.37-1.22.9.41.76,1.67.94c2.17.31,3.36.86,3.36,2.71s-1.36,2.84-3.64,2.84S206.9,598.12,206.82,596.25Z"/><path class="cls-2" d="M214.84,594.74v-.13a4.28,4.28,0,0,1,4.06-4.49h.39c2.23,0,4.21,1.3,4.21,4.39v.66h-6.23a2.07,2.07,0,0,0,1.86,2.26h.29c1.1,0,1.65-.48,1.8-1.21h2.26c-.28,1.87-1.77,2.91-4.13,2.91a4.2,4.2,0,0,1-4.5-3.87A3.13,3.13,0,0,1,214.84,594.74Zm6.33-1c-.08-1.3-.74-1.93-1.88-1.93a2,2,0,0,0-2,1.93Z"/><path class="cls-2" d="M224.13,594.74v-.13a4.29,4.29,0,0,1,4.08-4.49h.38c2,0,3.85.87,4.07,3.35H230.4a1.6,1.6,0,0,0-1.72-1.47h0c-1.24,0-2.06.93-2.06,2.58v.13c0,1.74.77,2.63,2.11,2.63a1.75,1.75,0,0,0,1.85-1.65v0h2.17c-.13,2.05-1.62,3.47-4.13,3.47a4.15,4.15,0,0,1-4.45-3.83A5.42,5.42,0,0,1,224.13,594.74Z"/><path class="cls-2" d="M233.27,596.56c0-2,1.86-2.77,4.5-2.77h1v-.35c0-1-.32-1.59-1.41-1.59A1.3,1.3,0,0,0,235.9,593s0,.07,0,.1H233.6c.15-2.05,1.77-3,3.89-3s3.62.86,3.62,3.2V599h-2.33v-1a3,3,0,0,1-2.61,1.22C234.6,599.14,233.27,598.38,233.27,596.56Zm5.48-.63v-.72h-.93c-1.39,0-2.2.29-2.2,1.22,0,.63.38,1,1.26,1C237.94,597.47,238.75,596.89,238.75,595.93Z"/><path class="cls-2" d="M242.61,590.31H245v1.33a2.93,2.93,0,0,1,2.64-1.52,2.4,2.4,0,0,1,2.42,1.5,3.42,3.42,0,0,1,2.91-1.5c1.6,0,2.84,1,2.84,3.3V599h-2.38v-5.27c0-1.11-.5-1.61-1.36-1.61a1.61,1.61,0,0,0-1.68,1.54,1.77,1.77,0,0,0,0,.23V599H248v-5.27c0-1.11-.51-1.61-1.35-1.61a1.61,1.61,0,0,0-1.68,1.54,1.77,1.77,0,0,0,0,.23V599h-2.4Z"/><path class="cls-2" d="M257.08,590.31h2.4v1.36a3.18,3.18,0,0,1,2.76-1.55c2.11,0,3.77,1.57,3.77,4.43v.13c0,2.86-1.62,4.46-3.77,4.46a3,3,0,0,1-2.76-1.5v4.26h-2.4Zm6.5,4.38v-.13c0-1.75-.86-2.61-2.07-2.61s-2.12.88-2.12,2.61v.13c0,1.74.83,2.58,2.14,2.58S263.58,596.38,263.58,594.69Z"/><path class="cls-2" d="M170.51,604.77a15.71,15.71,0,0,1-11.94-5.23,1.3,1.3,0,0,1-.26-1.33c.82-2.2,3-7.32,5.86-7.33h0c1.42,0,2.48,1.12,3.34,2a10.78,10.78,0,0,0,.91.88,22.65,22.65,0,0,0,3-5,1.3,1.3,0,0,1,2.36,1.09c-3.06,6.58-4.69,6.58-5.22,6.58-1.2,0-2.06-.91-2.89-1.79-.38-.4-1.16-1.22-1.46-1.22h0c-.66.11-2.11,2.39-3.14,4.9a13,13,0,0,0,9.47,3.81c5.12,0,9-1.39,10.61-3.84-.6-6.46-4.15-15.29-10.64-15.29-5.46,0-9.58,3.8-12.23,11.31a1.3,1.3,0,1,1-2.51-.66.86.86,0,0,1,.07-.21c3.06-8.65,8-13,14.67-13,8.72,0,12.74,11.14,13.23,18.17a1.43,1.43,0,0,1-.17.73C181.54,602.84,176.9,604.77,170.51,604.77Z"/><path class="cls-3" d="M102.56,349.09a1.69,1.69,0,0,0,.55,0,5.16,5.16,0,0,1,3.51,0,4.29,4.29,0,0,1,3,3.88,7.24,7.24,0,0,1-.86,4.13.24.24,0,0,1-.09.22c-.84,1.34-.43,2.53.44,3.67.46.61,1,1.2,1.38,1.83a5.18,5.18,0,0,1,.5,1.1,2.33,2.33,0,0,1-.55,2.42c-.31.37-.64.73-1,1.09A6.54,6.54,0,0,0,108,370a3.59,3.59,0,0,0,.12,2,1.56,1.56,0,0,0,.6.67.58.58,0,0,1,.29.64,1.67,1.67,0,0,0,.34,1.22,9.81,9.81,0,0,0,.81,1.21,2.78,2.78,0,0,1,.4,2.81,16.16,16.16,0,0,1-2.21,4.19,16.7,16.7,0,0,1-4.73,4.52,7.28,7.28,0,0,1-5.21,1,7.42,7.42,0,0,0-2.74,0,2.71,2.71,0,0,0-1.48.89,6.42,6.42,0,0,0-1,1.37,12.29,12.29,0,0,1-5,5,15.72,15.72,0,0,1-6.47,2.2,10,10,0,0,1-2.44-.12,22,22,0,0,1-5.51-1.51,14,14,0,0,1-1.65-.8,6.1,6.1,0,0,1-2.56-2.87c-.46-1-.82-2-1.23-3.05-.1-.26-.17-.53-.29-.79a2.58,2.58,0,0,0-1.8-1.52c-.69-.17-1.39-.32-2.09-.44a15.92,15.92,0,0,1-3.56-1.15,6.19,6.19,0,0,1-3.23-3,5.63,5.63,0,0,1-.55-2.21,12.37,12.37,0,0,1,1.22-6,6.58,6.58,0,0,0,.42-1.3,1.81,1.81,0,0,0-.64-1.93,10.46,10.46,0,0,0-1.44-.85c-.62-.31-1.27-.54-1.89-.83a4.47,4.47,0,0,1-2.14-2,11.93,11.93,0,0,1-1.55-3.72,7.14,7.14,0,0,1,1.55-6.15,32.52,32.52,0,0,1,6-5.48l.11-.1a5,5,0,0,1,4.84-.87,10,10,0,0,1,1.5.55,4,4,0,0,0,2.48.26,13.82,13.82,0,0,0,3.2-1,3.3,3.3,0,0,0,1.71-1.58c.28-.57.51-1.17.78-1.75a13.92,13.92,0,0,1,.72-1.51,2.94,2.94,0,0,1,2.79-1.54,7.35,7.35,0,0,1,4.64,1.71c.77.64,1.51,1.3,2.27,1.95a4.37,4.37,0,0,0,2.27,1.18,5.45,5.45,0,0,0,3.41-.58c.76-.41,1.47-.93,2.19-1.41.53-.35,1-.74,1.56-1.1.78-.53,1.59-1,2.36-1.56a5.3,5.3,0,0,1,2.62-1,3.07,3.07,0,0,1,1.34.18,5.14,5.14,0,0,1,3.21,3.47A16.1,16.1,0,0,1,102.56,349.09Zm6.09,4.57c-.05-.38-.09-.76-.15-1.13a2.93,2.93,0,0,0-2.08-2.51,3.65,3.65,0,0,0-3,0,1.4,1.4,0,0,1-.29.09c-.87.22-1.43,0-1.7-1.13a1.77,1.77,0,0,1,0-.46,4.11,4.11,0,0,0-2.6-3.74,1.46,1.46,0,0,0-.51-.12,3.52,3.52,0,0,0-2.52.72l-2.08,1.42c-.55.37-1.12.71-1.65,1.1a14.71,14.71,0,0,1-2.92,1.82,5.73,5.73,0,0,1-6.32-.71c-.71-.58-1.4-1.19-2.09-1.8A6.72,6.72,0,0,0,77,345.43a2.23,2.23,0,0,0-2.78,1.49s0,.05,0,.08c-.13.28-.24.57-.36.85-.26.6-.52,1.22-.8,1.82a4.13,4.13,0,0,1-1.71,1.8,13.75,13.75,0,0,1-3.22,1.21,5.66,5.66,0,0,1-4.16-.34,7.36,7.36,0,0,0-1.38-.43,3.8,3.8,0,0,0-3.32.63,29.69,29.69,0,0,0-6.68,6.27,4.13,4.13,0,0,0-.87,2.48v1.61a4.24,4.24,0,0,0,.42,1.85c.31.7.66,1.39,1,2.06A3.63,3.63,0,0,0,55,368.47c.36.15.71.29,1.06.46.57.27,1.16.52,1.71.84a2.92,2.92,0,0,1,1.62,2.9,5.41,5.41,0,0,1-.53,2.06,11,11,0,0,0-1.13,4.33,6.5,6.5,0,0,0,.42,2.93,4.77,4.77,0,0,0,2.62,2.56,17,17,0,0,0,4.53,1.35,4.3,4.3,0,0,1,3.47,2.1,12.43,12.43,0,0,1,.6,1.41c.41,1,.78,2,1.24,3a4.94,4.94,0,0,0,2.39,2.3c.49.23,1,.48,1.46.68A25.06,25.06,0,0,0,79,396.61a10.15,10.15,0,0,0,4.32-.07A17,17,0,0,0,90.11,393a7.49,7.49,0,0,0,1.7-2.06c.27-.49.57-1,.87-1.44a4.47,4.47,0,0,1,3.46-2.25,14.8,14.8,0,0,1,3.12.12,5.23,5.23,0,0,0,3.24-.64,14.12,14.12,0,0,0,3.91-3.18,22.78,22.78,0,0,0,1.9-2.68,20.09,20.09,0,0,0,1.28-2.69,1.68,1.68,0,0,0-.24-1.81c-.14-.18-.27-.37-.4-.56a4.08,4.08,0,0,1-1-2.21c0-.12-.14-.25-.23-.36a3.65,3.65,0,0,1-.82-3.14,4.8,4.8,0,0,1,.88-2.18,25.4,25.4,0,0,1,1.74-2.14,1.71,1.71,0,0,0,.26-2.11,10.27,10.27,0,0,0-1-1.44,8.45,8.45,0,0,1-1.43-2.33,3,3,0,0,1,0-2.38c.18-.42.38-.84.57-1.26A6.22,6.22,0,0,0,108.65,353.66Z"/><path class="cls-3" d="M355.06,395.47a19.76,19.76,0,0,1-4.33-.56,5.86,5.86,0,0,1-2.41-1.12c-1.8-1.43-3.61-2.83-5.37-4.31a12.74,12.74,0,0,0-6.1-2.82c-1.48-.26-3-.47-4.45-.72a23.14,23.14,0,0,1-5.85-1.95,18.48,18.48,0,0,1-2.53-1.43,6.58,6.58,0,0,1-2.47-2.95c-.53-1.22-1.08-2.42-1.64-3.62a5.34,5.34,0,0,1,.33-5.19,16.24,16.24,0,0,1,7.35-6.82,20.89,20.89,0,0,0,2.09-1.11,61.11,61.11,0,0,1,5.5-2.87l1.17-.56a6.36,6.36,0,0,0,2.5-2.3,29.36,29.36,0,0,1,2.32-3.42,35.5,35.5,0,0,1,3.62-3.74c1.65-1.45,3.4-2.78,5.13-4.13a7.83,7.83,0,0,1,4.49-1.55,15.88,15.88,0,0,1,4.18.37l1.94.4a9.75,9.75,0,0,1,3.08,1.12c1.23.72,2.46,1.45,3.67,2.21a13.29,13.29,0,0,1,2.76,2.31,31.05,31.05,0,0,1,4.63,6.07c.12.23.25.45.36.68q1.11,2.22,2.19,4.47a5.89,5.89,0,0,1,.34,1c.18.66.29,1.34.51,2a13.27,13.27,0,0,1,.58,3c.15,1.62.24,3.26.36,4.88a12.79,12.79,0,0,1-1.82,7.24,32.44,32.44,0,0,1-5.8,7.29,36.73,36.73,0,0,1-8.86,6.5,12.7,12.7,0,0,1-5,1.44Zm-23-10.7c.36.07.68.15,1,.2,1.38.21,2.78.37,4.15.64a13.63,13.63,0,0,1,6.3,2.95c1.63,1.36,3.29,2.68,4.93,4a6.23,6.23,0,0,0,2.36,1.24,16.4,16.4,0,0,0,3.62.53,21.08,21.08,0,0,0,4.12-.32,13.82,13.82,0,0,0,5.22-2.18c-.22-.13-.39-.23-.55-.34a1.23,1.23,0,0,1-.51-1.41.55.55,0,0,1,.58-.5c.31,0,.45.16.49.55a3.38,3.38,0,0,1,0,.45h.1l.63.82c.11-.06.27-.15.42-.25a38.81,38.81,0,0,0,6.83-5.77,28.93,28.93,0,0,0,4.76-6.45,11.6,11.6,0,0,0,1.34-6.51c-.14-1.72-.26-3.45-.46-5.17a5.11,5.11,0,0,0-.94-2.85.69.69,0,0,1-.11-.5,3.24,3.24,0,0,0-.55-2.32c-.43-.78-.81-1.59-1.23-2.38-.6-1.12-1.15-2.28-1.86-3.34s-1.63-2.09-2.44-3.14a18,18,0,0,0-6.08-4.8c-.29.37-.59.74-.88,1.13a.53.53,0,0,1-.67.2.43.43,0,0,1-.28-.55h0a2.86,2.86,0,0,1,.35-.75,4.82,4.82,0,0,1,.5-.6,3.87,3.87,0,0,0-.43-.27,16,16,0,0,0-2-.74,23.17,23.17,0,0,0-6.19-.91,7.06,7.06,0,0,0-4.13,1.4c-1.77,1.39-3.55,2.77-5.23,4.26a23.07,23.07,0,0,0-4.92,5.73,14.73,14.73,0,0,1-1.44,2.07,8.48,8.48,0,0,1-2.95,2c-1.53.76-3.06,1.51-4.58,2.3-1.35.7-2.68,1.48-4,2.17a15,15,0,0,0-6.26,6.23,4.16,4.16,0,0,0-.14,4.1c.56,1.12,1.06,2.26,1.56,3.41a6.4,6.4,0,0,0,2.47,2.85A22.1,22.1,0,0,0,329.4,384c.49.18,1,.32,1.52.48.08-.11.16-.23.23-.35a6.44,6.44,0,0,1,2.09-2,.51.51,0,0,1,.73,0l.07.09c.2.28.15.52-.17.79s-.55.38-.8.59a2.65,2.65,0,0,0-1,1.15Z"/><path class="cls-3" d="M291.4,372.69a12.75,12.75,0,0,1-1.84,6.81,33.72,33.72,0,0,1-6.4,7.88,38,38,0,0,1-6.2,4.74,17,17,0,0,1-4.33,2.09,14.19,14.19,0,0,1-3.6.59h-3a12.92,12.92,0,0,1-3.74-.68,8.28,8.28,0,0,1-2.47-1.52c-1.51-1.22-3-2.43-4.51-3.68a12.9,12.9,0,0,0-6.33-2.87c-1.26-.22-2.52-.39-3.77-.59a24.91,24.91,0,0,1-6.46-2.09,12.93,12.93,0,0,1-2.93-1.79A6.71,6.71,0,0,1,234,379.1c-.57-1.31-1.2-2.6-1.77-3.91a4.83,4.83,0,0,1,.17-4.42,15.63,15.63,0,0,1,6.41-6.72q3.84-2.07,7.71-4.09c.9-.48,1.83-.89,2.73-1.38a5.46,5.46,0,0,0,2-1.9,44.56,44.56,0,0,1,2.6-3.79,33.42,33.42,0,0,1,5.67-5.35c.69-.53,1.38-1.06,2-1.62a9,9,0,0,1,7.49-2.11c1.31.19,2.62.41,3.92.68a10.17,10.17,0,0,1,3.21,1.18c1.25.76,2.5,1.5,3.72,2.28a19.84,19.84,0,0,1,4.36,4.17,25.21,25.21,0,0,1,4.14,6.68c.38.91.9,1.77,1.33,2.66a5.89,5.89,0,0,1,.34,1.08,13.17,13.17,0,0,0,.34,1.41,13.15,13.15,0,0,1,.73,3.5C291.19,369.27,291.29,371.08,291.4,372.69ZM277,390.85c1.15-.84,2.35-1.66,3.48-2.57a41.85,41.85,0,0,0,4.73-4.59,22.92,22.92,0,0,0,4.19-6.37,10.7,10.7,0,0,0,.89-5.38c-.13-1.27-.28-2.53-.32-3.81a12.47,12.47,0,0,0-.28-2.27A6.83,6.83,0,0,0,289,364a1.23,1.23,0,0,1-.24-.83,3,3,0,0,0-.38-1.84c-.57-1.08-1.13-2.17-1.65-3.28a26.5,26.5,0,0,0-4.11-6,17.06,17.06,0,0,0-4.18-3.67l-2.3-1.39a10.81,10.81,0,0,0-3.83-1.49c-1.23-.2-2.45-.45-3.69-.62a7.79,7.79,0,0,0-6.35,1.76c-.91.75-1.84,1.46-2.76,2.21a28.11,28.11,0,0,0-7.17,8,7.08,7.08,0,0,1-2.44,2.6c-.58.36-1.2.67-1.82,1-1.2.61-2.43,1.19-3.62,1.81-1.36.72-2.69,1.47-4,2.21-.51.28-1,.53-1.55.82a14.78,14.78,0,0,0-5.62,6.13,3.82,3.82,0,0,0,0,3.54c.54,1.15,1.1,2.3,1.58,3.48a6.58,6.58,0,0,0,3.34,3.45c1.13.57,2.32,1.05,3.49,1.54a16.14,16.14,0,0,0,1.67.52,6.34,6.34,0,0,1,2.27-2.33.56.56,0,0,1,.79,0l0,0c.21.26.18.52-.15.8s-.61.46-.91.68a2.37,2.37,0,0,0-.88,1.07c.29.06.54.13.79.17,1.33.21,2.67.38,4,.62a13.67,13.67,0,0,1,6.43,2.85c1.74,1.42,3.48,2.84,5.24,4.23a5.52,5.52,0,0,0,1.64,1,13.39,13.39,0,0,0,3,.65,20.62,20.62,0,0,0,4.51-.08,13.4,13.4,0,0,0,5.31-1.83l.78-.48-.52-.33a1.32,1.32,0,0,1-.52-1.48.54.54,0,0,1,.55-.44.49.49,0,0,1,.52.46h0a2.41,2.41,0,0,1,0,.38Z"/><path class="cls-3" d="M202.9,373.06a12.2,12.2,0,0,1-1.42,5.52,27.1,27.1,0,0,1-5.27,7.2,42,42,0,0,1-4.1,3.79,35.21,35.21,0,0,1-6.53,4.12,14.11,14.11,0,0,1-4.43,1.09,23.69,23.69,0,0,1-2.53.14,18.08,18.08,0,0,1-4.45-.61,7.07,7.07,0,0,1-2.54-1.38c-1.64-1.3-3.28-2.6-4.88-4a12.31,12.31,0,0,0-5.72-2.75c-1.35-.26-2.72-.42-4.08-.64a26,26,0,0,1-8.82-3.31,7.57,7.57,0,0,1-2.81-3.25c-.47-1.11-1-2.18-1.49-3.28a11,11,0,0,1-.49-1.36,4.53,4.53,0,0,1,.41-3.49,15.4,15.4,0,0,1,6.12-6.59c2.54-1.42,5.11-2.77,7.68-4.13.77-.41,1.57-.74,2.35-1.12a6.52,6.52,0,0,0,2.81-2.52,38.65,38.65,0,0,1,2.42-3.53,32.31,32.31,0,0,1,5-4.85c1.07-.87,2.17-1.71,3.25-2.56a8.39,8.39,0,0,1,4.41-1.77,12.76,12.76,0,0,1,3.65.18c1,.17,1.95.37,2.92.56A10.71,10.71,0,0,1,188,346l3,1.83a13.2,13.2,0,0,1,2.77,2.29,30.51,30.51,0,0,1,4.06,5.07c.62,1,1.14,2.11,1.69,3.18.31.58.6,1.18.9,1.77s.55,1.09.81,1.65a2.36,2.36,0,0,1,.12.51,12.52,12.52,0,0,0,.41,1.71,16.32,16.32,0,0,1,.8,4.65c.07.89.13,1.78.2,2.67C202.78,371.9,202.84,372.48,202.9,373.06Zm-24-28.17a7.43,7.43,0,0,0-5.38,2c-.59.52-1.23,1-1.85,1.48a29.4,29.4,0,0,0-7.89,8.55,7.83,7.83,0,0,1-3.65,3.27l-.55.27a61.9,61.9,0,0,0-5.7,3,18.22,18.22,0,0,1-2.09,1.12,14.78,14.78,0,0,0-6.79,6.31,4.23,4.23,0,0,0-.2,4.43c.6,1.12,1.08,2.31,1.6,3.47a6.16,6.16,0,0,0,2,2.44,14.82,14.82,0,0,0,3,1.58,22.9,22.9,0,0,0,6.07,1.78c1.26.18,2.52.36,3.77.61a13.09,13.09,0,0,1,5.79,2.64c1.53,1.24,3,2.5,4.57,3.74a8.25,8.25,0,0,0,2.36,1.55,14.45,14.45,0,0,0,3,.67,17,17,0,0,0,3.9,0,14.07,14.07,0,0,0,3.79-.85,30,30,0,0,0,6.45-3.95,39.36,39.36,0,0,0,5.75-5.5,22.3,22.3,0,0,0,3.88-5.94,10.22,10.22,0,0,0,.88-5.74c-.1-.63-.14-1.27-.19-1.9-.11-1.22-.17-2.44-.32-3.66a4.55,4.55,0,0,0-.82-2.33.81.81,0,0,1-.1-.51,3.62,3.62,0,0,0-.63-2.39c-.41-.76-.81-1.53-1.17-2.31a21,21,0,0,0-2.53-4.28c-1-1.22-2-2.41-3-3.55a13,13,0,0,0-2.15-1.84c-1.11-.76-2.31-1.4-3.46-2.11a9.63,9.63,0,0,0-3.19-1.24,24.08,24.08,0,0,0-5.19-.81Z"/><path class="cls-3" d="M310.42,372.39l-2.33-1.22a3.26,3.26,0,0,1-.4-.24.66.66,0,0,1-.34-.78c.09-.34.37-.38.66-.4a3.23,3.23,0,0,1,1.85.38c1.34.74,2.66,1.52,4,2.28a1.43,1.43,0,0,1,.35.3.86.86,0,0,1,.08,1.21.6.6,0,0,1-.08.08,2.72,2.72,0,0,1-.42.34c-1.1.7-2.19,1.4-3.3,2.08-.78.48-1.57.94-2.36,1.4v.35c0,.27,0,.52-.27.65a1.1,1.1,0,0,1-1.06-.29.62.62,0,0,1-.13-.77,2.07,2.07,0,0,1,.58-.6c1-.68,2.12-1.32,3.18-2l2.13-1.29a4.62,4.62,0,0,0-1.52-.26c-1.77-.16-3.55-.36-5.33-.42a41.48,41.48,0,0,0-5.9-.09c-1,.1-1.93.14-2.9.19a1.63,1.63,0,0,0-.93.29.59.59,0,0,1-.83-.08.81.81,0,0,1-.1-.18.64.64,0,0,1,.36-.81,3.23,3.23,0,0,1,.8-.25c.63-.09,1.27-.15,1.91-.19,1.19-.06,2.39-.16,3.59-.13,1.74,0,3.47.16,5.2.26l2.75.17A4.38,4.38,0,0,0,310.42,372.39Z"/><path class="cls-3" d="M135.61,371.26a27.43,27.43,0,0,0-3.68-2.12,5.54,5.54,0,0,1-.53-.3.51.51,0,0,1-.17-.68.48.48,0,0,1,.62-.28h0c.54.22,1.09.43,1.62.69.95.49,1.9,1,2.84,1.51a2.17,2.17,0,0,1,1.11,1.4c.14.52.13.65-.31,1-1.06.79-2.15,1.55-3.2,2.35-.55.42-1,.91-1.55,1.37-.19.17-.36.37-.56.52a.64.64,0,0,1-.84,0c-.21-.23-.11-.59.15-.87a18.47,18.47,0,0,1,4-3.15l.32-.16a7.22,7.22,0,0,0-2.3-.4c-2.59-.18-5.19-.39-7.8-.32-1.84.06-3.67.15-5.51.25a6.26,6.26,0,0,0-2.11.2.7.7,0,0,1-.58-.11.46.46,0,0,1-.31-.55.9.9,0,0,1,.34-.47.8.8,0,0,1,.43-.1c.76,0,1.53-.11,2.29-.13,2.66-.07,5.32-.16,8-.16,1.55,0,3.11.15,4.66.26.94.07,1.87.21,2.81.31A1.09,1.09,0,0,0,135.61,371.26Z"/><path class="cls-3" d="M224.55,372.66l-3.05.15H209.08a1.41,1.41,0,0,0-1.14.26c-.23.23-.63,0-.81-.3a.59.59,0,0,1,.2-.81l0,0a2.3,2.3,0,0,1,.81-.2h12.34c.72,0,1.43-.1,2.3-.17l-2.26-1.16c-.18-.09-.37-.17-.54-.27a.52.52,0,0,1-.3-.64.66.66,0,0,1,.71-.45c.32.06.64.17,1,.25a12.62,12.62,0,0,1,3.89,1.74,3.91,3.91,0,0,1,.76.65,1,1,0,0,1,0,1.41.3.3,0,0,1-.08.08c-.4.32-.81.62-1.24.9-.25.17-.52.32-.78.48a2.75,2.75,0,0,0-1.34,1.41.49.49,0,0,1-.59.39l-.14-.05a.62.62,0,0,1-.27-.79,2.39,2.39,0,0,1,.13-.28,3.29,3.29,0,0,1,1.22-1.34l1-.61c.23-.15.45-.32.68-.48Z"/><path class="cls-3" d="M214.54,403.71c.47,0,.72.29.65.66s-.18.75-.23,1.13c-.07.58-.1,1.16-.15,1.74s-.07,1-.13,1.53-.27.61-.57.6a.57.57,0,0,1-.51-.61v0a26.79,26.79,0,0,1,.36-4,2.1,2.1,0,0,1,.23-.65A1.67,1.67,0,0,1,214.54,403.71Z"/><path class="cls-3" d="M213.05,355.53a4.75,4.75,0,0,1,.66-2.57.6.6,0,0,1,.77-.32l0,0a.55.55,0,0,1,.18.76l0,0a4.13,4.13,0,0,0-.35,3.17,3.86,3.86,0,0,1,.1.76.49.49,0,0,1-.39.59h0a.49.49,0,0,1-.6-.35s0-.06,0-.09C213.24,356.89,213.15,356.21,213.05,355.53Z"/><path class="cls-3" d="M213.24,364.29c.14-.74.27-1.57.46-2.38.12-.5.4-.66.75-.53s.4.39.31.82c-.13.6-.27,1.19-.34,1.79a6.82,6.82,0,0,0,.05,1.28c0,.16.05.3.06.46a.56.56,0,0,1-.43.62.61.61,0,0,1-.62-.46C213.38,365.39,213.33,364.89,213.24,364.29Z"/><path class="cls-3" d="M213.66,340.46c.1-.68.17-1.35.3-2a1.36,1.36,0,0,1,.33-.68.7.7,0,0,1,.54-.14.41.41,0,0,1,.33.45,1.21,1.21,0,0,1,0,.38,6.8,6.8,0,0,0-.24,3.23,3.38,3.38,0,0,1,0,.45c0,.26-.17.48-.49.5a.49.49,0,0,1-.56-.41,8.26,8.26,0,0,1-.1-1v-.76Z"/><path class="cls-3" d="M214.07,379.44v-1.15a3.05,3.05,0,0,1,.13-.67c.09-.3.33-.36.6-.33a.48.48,0,0,1,.44.46,4.57,4.57,0,0,1-.05.52c0,.89,0,1.78.05,2.66,0,.23.07.46.07.68,0,.39-.12.58-.42.61a.54.54,0,0,1-.62-.44,7.81,7.81,0,0,1-.2-1.27,9.55,9.55,0,0,1,0-1.07Z"/><path class="cls-3" d="M213.76,398.19c.15-.86.3-1.81.48-2.76a.5.5,0,0,1,.59-.36.44.44,0,0,1,.44.44h0a2,2,0,0,1,0,.69,8.26,8.26,0,0,0-.29,2.57.89.89,0,0,1,0,.23.55.55,0,0,1-.51.48.5.5,0,0,1-.55-.43A3.67,3.67,0,0,1,213.76,398.19Z"/><path class="cls-3" d="M213.64,348.12c.05-.89.09-1.79.14-2.68a2.93,2.93,0,0,1,.11-.59.47.47,0,0,1,.52-.37.5.5,0,0,1,.5.4,1.69,1.69,0,0,1,0,.45c0,.66-.08,1.32-.13,2a11.12,11.12,0,0,1-.15,1.14.5.5,0,0,1-.52.5H214c-.31,0-.43-.19-.44-.6v-.23Z"/><path class="cls-4" d="M215,330.23c0,.23-.09.48-.1.73v1.81c0,.6,0,.71-.35.8s-.64-.07-.7-.58a16.54,16.54,0,0,1-.08-2.11,7.5,7.5,0,0,1,.14-1.06c.07-.38.27-.56.6-.55s.47.18.48.63Z"/><path class="cls-3" d="M214.66,387.27v-.91a.44.44,0,0,1,.44-.44h0a.46.46,0,0,1,.57.34v0a4.23,4.23,0,0,1-.09,2,.48.48,0,0,1-.59.34h0a.52.52,0,0,1-.42-.55C214.59,387.78,214.64,387.45,214.66,387.27Z"/><path class="cls-3" d="M85.76,364.94a4.54,4.54,0,0,1-1.29,3.18l-.84.9a4.13,4.13,0,0,0-1,1.57.49.49,0,0,1-.5.4.82.82,0,0,1-.49-.28.53.53,0,0,1,0-.49,8.17,8.17,0,0,1,.75-1.32,13.57,13.57,0,0,1,1.28-1.43,3.67,3.67,0,0,0,1-2.09,3,3,0,0,0-.34-1.85,1.26,1.26,0,0,0-1-.68,4.36,4.36,0,0,0-2,.11,6.68,6.68,0,0,0-2.53,1.22,2,2,0,0,0-.74.85.49.49,0,0,1-.63.3l-.06,0a.57.57,0,0,1-.29-.71,2,2,0,0,1,.73-1,7.84,7.84,0,0,1,4.46-1.84,5.79,5.79,0,0,1,1.66.18,2,2,0,0,1,1.11.9A4.2,4.2,0,0,1,85.76,364.94Z"/><path class="cls-3" d="M84.87,376.3a4.86,4.86,0,0,1,0,.54.45.45,0,0,1-.42.48h0a.47.47,0,0,1-.55-.37v0a7.06,7.06,0,0,1,0-1.3.52.52,0,0,1,.69-.28.5.5,0,0,1,.31.35v.61Z"/><path class="cls-3" d="M346.68,386.23l.84-1.08c.51-.63,1-1.29,1.55-1.89,1.08-1.15,2.21-2.25,3.3-3.4a1.72,1.72,0,0,1,1.65-.56.61.61,0,0,1,.55.63.59.59,0,0,1-.61.46h-.08a.82.82,0,0,0-.8.33c-1.11,1.16-2.26,2.29-3.34,3.47-.67.73-1.25,1.55-1.87,2.32a4.63,4.63,0,0,1-.5.58.88.88,0,0,1-1.23.17.86.86,0,0,1-.26-.31,2.7,2.7,0,0,1-.3-.52c-.18-.42-.34-.85-.51-1.28a1.64,1.64,0,0,0-.64-1c-.34-.2-.3-.89,0-1.19a.66.66,0,0,1,.89,0,1.33,1.33,0,0,1,.27.46c.25.61.49,1.23.73,1.84Z"/><path class="cls-3" d="M352.42,370.06c.6-.73,1.11-1.33,1.6-1.95a18.67,18.67,0,0,1,4.35-3.82,1.3,1.3,0,0,1,.64-.2.52.52,0,0,1,.62.34c.09.26-.05.49-.34.68-.71.46-1.42.9-2.09,1.41a19.17,19.17,0,0,0-3.92,4.36,3.26,3.26,0,0,1-.55.62.45.45,0,0,1-.64,0l0-.05c-.13-.15-.24-.32-.36-.49a13.65,13.65,0,0,1-1.33-3.24.63.63,0,0,1,.36-.82h0c.32-.11.6.06.74.48s.33,1.12.52,1.68C352.09,369.36,352.25,369.65,352.42,370.06Z"/><path class="cls-3" d="M348.25,374.29c0,.41-.23.73-.55.7a1.17,1.17,0,0,0-1.13.45.45.45,0,0,1-.68,0,.51.51,0,0,1-.1-.69,2.12,2.12,0,0,1,2.09-.77C348.05,374,348.17,374.21,348.25,374.29Z"/><path class="cls-3" d="M336.65,379.63c.06-.14.12-.28.19-.42a2.68,2.68,0,0,1,1.23-1,.5.5,0,0,1,.66.2.54.54,0,0,1-.11.7,2.2,2.2,0,0,1-.32.21,1.1,1.1,0,0,0-.65.7.45.45,0,0,1-.53.34C336.78,380.32,336.6,380.07,336.65,379.63Z"/><path class="cls-3" d="M335.52,361.28a4.24,4.24,0,0,1,.5.18c.35.2.7.4,1.05.62s.4.44.29.7a.55.55,0,0,1-.71.26,9.29,9.29,0,0,1-1.25-.55.59.59,0,0,1-.3-.34.86.86,0,0,1,0-.55C335.17,361.45,335.39,361.37,335.52,361.28Z"/><path class="cls-3" d="M340.33,365.64a.59.59,0,0,1,.41-.65,7.63,7.63,0,0,1,1.13-.41.49.49,0,0,1,.63.28.52.52,0,0,1-.2.69l0,0a3,3,0,0,0-1.05.69c-.07.09-.34.09-.48,0A.58.58,0,0,1,340.33,365.64Z"/><path class="cls-3" d="M361.94,372.16a3,3,0,0,1-.38.42c-.34.26-.71.48-1.06.72a.52.52,0,0,1-.69-.06.5.5,0,0,1-.09-.63,1,1,0,0,1,.35-.39,8.66,8.66,0,0,1,1.11-.64.55.55,0,0,1,.72.32A.46.46,0,0,1,361.94,372.16Z"/><path class="cls-3" d="M357.41,377.14c.47,0,.73.37.49.76a1.7,1.7,0,0,0-.24.76.5.5,0,0,1-.54.46.52.52,0,0,1-.26-.1.92.92,0,0,1-.52-1.07A1.11,1.11,0,0,1,357.41,377.14Z"/><path class="cls-3" d="M361.65,387.3a1.76,1.76,0,0,1,.07-.45.54.54,0,0,1,.62-.33.43.43,0,0,1,.41.45h0a1,1,0,0,0,.32.88.47.47,0,0,1,0,.66l0,0a.54.54,0,0,1-.76.05A1.5,1.5,0,0,1,361.65,387.3Z"/><path class="cls-3" d="M340.94,376.66a1,1,0,0,1,.91-1.09.93.93,0,0,1,.33,0,.46.46,0,0,1,.45.34.54.54,0,0,1-.21.61c-.22.13-.4.23-.43.54s-.27.4-.57.37a.48.48,0,0,1-.47-.5A1.51,1.51,0,0,1,340.94,376.66Z"/><path class="cls-3" d="M360.89,351.11c0-.39.65-1.3,1-1.34a.69.69,0,0,1,.53.2.6.6,0,0,1,.07.55,6.47,6.47,0,0,1-.63,1,.5.5,0,0,1-.61.18A.6.6,0,0,1,360.89,351.11Z"/><path class="cls-3" d="M365,370.35a1.57,1.57,0,0,1-.3.38,7.46,7.46,0,0,1-1,.55.5.5,0,0,1-.67-.18.48.48,0,0,1,.07-.68h0a7.59,7.59,0,0,1,1.17-.68C364.65,369.59,365,369.89,365,370.35Z"/><path class="cls-3" d="M359.88,354.86c-.4,0-.76-.41-.61-.74A5.53,5.53,0,0,1,360,353a.5.5,0,0,1,.7,0,.47.47,0,0,1,.11.62,9.35,9.35,0,0,1-.63,1A.89.89,0,0,1,359.88,354.86Z"/><path class="cls-3" d="M358,357.15a1.9,1.9,0,0,1,.61-1.28.44.44,0,0,1,.62-.06h0a.47.47,0,0,1,.22.64h0l-.4.9c-.14.32-.38.48-.64.42S358,357.52,358,357.15Z"/><path class="cls-3" d="M341.67,370.44a5,5,0,0,0,.05.86.54.54,0,0,1-.32.56.5.5,0,0,1-.61-.16,1.38,1.38,0,0,1-.18-1.49,1.19,1.19,0,0,1,.4-.34A.47.47,0,0,1,341.67,370.44Z"/><path class="cls-3" d="M376.15,365.88c.48,0,.7.15.74.43a.55.55,0,0,1-.45.65h0a8.41,8.41,0,0,1-1.12.17.55.55,0,0,1-.53-.45.44.44,0,0,1,.27-.56A8.62,8.62,0,0,1,376.15,365.88Z"/><path class="cls-3" d="M360.86,383.18c.12.52.24,1,.35,1.5a.46.46,0,0,1-.31.54.49.49,0,0,1-.66-.22h0a2.38,2.38,0,0,1-.24-1.55C360,383.19,360.2,383.15,360.86,383.18Z"/><path class="cls-3" d="M358.15,380.44a1.31,1.31,0,0,1,.06-.27.47.47,0,0,1,.56-.3.39.39,0,0,1,.43.35,1.76,1.76,0,0,0,.29.92.49.49,0,0,1-.14.68h0a.53.53,0,0,1-.7-.06A1.47,1.47,0,0,1,358.15,380.44Z"/><path class="cls-3" d="M372.91,366.41c.43,0,.66,0,.73.36a.54.54,0,0,1-.34.68l-.06,0a6.9,6.9,0,0,1-1,.23.51.51,0,0,1-.62-.36v0a.51.51,0,0,1,.33-.63H372C372.36,366.54,372.71,366.47,372.91,366.41Z"/><path class="cls-3" d="M358.16,374.05a.92.92,0,0,1,.35.3.45.45,0,0,1-.14.61,10.49,10.49,0,0,1-.85.64c-.18.13-.4.19-.56,0a2,2,0,0,1-.23-.52v-.15A1.92,1.92,0,0,1,358.16,374.05Z"/><path class="cls-3" d="M366.59,369.86c-.17-.16-.36-.26-.44-.42a.44.44,0,0,1,.13-.61h0a5.42,5.42,0,0,1,1.09-.51.54.54,0,0,1,.49.81C367.48,369.4,367.05,369.6,366.59,369.86Z"/><path class="cls-3" d="M354.73,375.16c.34.2.68.41,1,.64a.42.42,0,0,1,0,.59l0,0a.48.48,0,0,1-.6.17l-.75-.37a.51.51,0,0,1-.3-.63C354.1,375.32,354.32,375.2,354.73,375.16Z"/><path class="cls-3" d="M370.48,367.76a.29.29,0,0,1-.06.2,1.67,1.67,0,0,1-1.28.65.49.49,0,0,1-.43-.56.47.47,0,0,1,.16-.31,3.43,3.43,0,0,1,1-.53C370.14,367.12,370.48,367.45,370.48,367.76Z"/><path class="cls-3" d="M340.5,368.11a.56.56,0,0,1-.53.57h-.12a1,1,0,0,1-.62-1.27.89.89,0,0,1,.08-.17.53.53,0,0,1,.95,0A4,4,0,0,1,340.5,368.11Z"/><path class="cls-3" d="M364.45,365c0-.48.19-.77.47-.83s.49.11.61.51c.05.17.13.33.19.49a.58.58,0,0,1-.26.71.53.53,0,0,1-.67-.18A6.44,6.44,0,0,1,364.45,365Z"/><path class="cls-3" d="M337.72,364.45a2,2,0,0,1,0-.35.53.53,0,0,1,.68-.32.51.51,0,0,1,.32.32,2.89,2.89,0,0,1,0,.83.56.56,0,0,1-.58.54h0c-.33,0-.46-.2-.46-.64C337.67,364.7,337.69,364.58,337.72,364.45Z"/><path class="cls-3" d="M362.14,360.33a.92.92,0,0,1,.28.14,3.77,3.77,0,0,1,.45.78.47.47,0,0,1-.22.59.44.44,0,0,1-.62,0,2.72,2.72,0,0,1-.48-.76A.62.62,0,0,1,362.14,360.33Z"/><path class="cls-3" d="M365.34,367.59a.52.52,0,0,1,.47-.57h.09c.42,0,.62.53.67,1a.58.58,0,0,1-.52.56A.87.87,0,0,1,365.34,367.59Z"/><path class="cls-3" d="M361.2,360.14a.47.47,0,0,1-.44.48h0a1.1,1.1,0,0,1-1-.64.45.45,0,0,1,.21-.59.67.67,0,0,1,.72.07C361.1,359.72,361.21,359.85,361.2,360.14Z"/><path class="cls-3" d="M351.18,373.93a2.2,2.2,0,0,1,.56.26.44.44,0,0,1,.15.6.51.51,0,0,1-.54.33l-.44-.11c-.37-.12-.49-.29-.44-.6S350.75,373.94,351.18,373.93Z"/><path class="cls-3" d="M345.18,363.63a1,1,0,0,1-.78.79.58.58,0,0,1-.53-.62.88.88,0,0,1,.73-.75.58.58,0,0,1,.58.56Z"/><path class="cls-3" d="M342,372.84a.91.91,0,0,1,.81.91.54.54,0,0,1-.52.53.61.61,0,0,1-.62-.46.74.74,0,0,1,.07-.85A.64.64,0,0,1,342,372.84Z"/><path class="cls-3" d="M363.33,362.65a.49.49,0,0,1,.45-.53h.05c.3,0,.73.49.74.84a.53.53,0,0,1-.51.55H364a.76.76,0,0,1-.66-.85Z"/><path class="cls-3" d="M348.08,362.61c-.5,0-.73-.33-.59-.68a1.22,1.22,0,0,1,.29-.42.6.6,0,0,1,.82-.05.51.51,0,0,1,.07.72l-.07.07A2.68,2.68,0,0,1,348.08,362.61Z"/><path class="cls-3" d="M351.41,361.32a.52.52,0,0,1-.51-.53h0a.81.81,0,0,1,.69-.76.61.61,0,0,1,.54.53A.91.91,0,0,1,351.41,361.32Z"/><path class="cls-3" d="M354.81,358.8c.28,0,.58.28.53.54-.08.48-.21.77-.59.75a.6.6,0,0,1-.54-.63A.63.63,0,0,1,354.81,358.8Z"/><path class="cls-3" d="M358,359.49c-.4,0-.69-.22-.69-.55s.25-.53.68-.53.62.14.63.48A.57.57,0,0,1,358,359.49Z"/><path class="cls-3" d="M265.86,379.76c-.81.84-1.56,1.65-2.33,2.42a24.08,24.08,0,0,0-3.21,3.7,4.16,4.16,0,0,1-.54.64.92.92,0,0,1-1.28.15.93.93,0,0,1-.26-.33,18.1,18.1,0,0,1-.78-1.74,1.82,1.82,0,0,0-.64-1,.9.9,0,0,1-.05-1.18.57.57,0,0,1,.8-.07.46.46,0,0,1,.07.07,3.47,3.47,0,0,1,.46.79c.25.61.47,1.24.71,1.86.06.16.14.32.24.55a4.88,4.88,0,0,0,.48-.54,26.94,26.94,0,0,1,3.38-3.86c.55-.56,1.07-1.16,1.64-1.71a5.08,5.08,0,0,1,1-.72,1.1,1.1,0,0,1,1,0,.56.56,0,0,1,.38.66.58.58,0,0,1-.67.38A2.79,2.79,0,0,1,265.86,379.76Z"/><path class="cls-3" d="M250.67,377.61a.53.53,0,0,1,.51.55.54.54,0,0,1-.05.21.82.82,0,0,1-.32.32,1.64,1.64,0,0,0-.82.84c-.1.29-.39.3-.65.23a.45.45,0,0,1-.32-.47A2.16,2.16,0,0,1,250.67,377.61Z"/><path class="cls-3" d="M260.59,373.87c0,.34-.15.57-.49.54a1.11,1.11,0,0,0-1.07.43.54.54,0,0,1-.78,0l0,0a.52.52,0,0,1,0-.7,2.07,2.07,0,0,1,1.74-.79C260.37,373.35,260.58,373.56,260.59,373.87Z"/><path class="cls-3" d="M269.61,376.56c.6,0,.91.44.65.83a1.21,1.21,0,0,0-.21.61.54.54,0,0,1-.92.42.94.94,0,0,1-.32-1.28,1.07,1.07,0,0,1,.2-.23A3,3,0,0,1,269.61,376.56Z"/><path class="cls-3" d="M253.32,376.08a1,1,0,0,1,.92-1.07h.18a.55.55,0,0,1,.59.39.5.5,0,0,1-.26.64c-.2.08-.32.15-.36.4a.53.53,0,0,1-.55.51h0c-.29,0-.49-.26-.52-.64Z"/><path class="cls-3" d="M274.47,386a.56.56,0,0,1,.65.45.13.13,0,0,1,0,.06,1,1,0,0,0,.33.87.44.44,0,0,1,.06.62l-.06.06a.49.49,0,0,1-.62.13,1.61,1.61,0,0,1-.69-1.85A.44.44,0,0,1,274.47,386Z"/><path class="cls-3" d="M270.51,380.11a3.47,3.47,0,0,1,.06-.45.51.51,0,0,1,.6-.36.41.41,0,0,1,.43.44,1.23,1.23,0,0,0,.26.85.48.48,0,0,1-.1.67h0a.5.5,0,0,1-.7,0A1.33,1.33,0,0,1,270.51,380.11Z"/><path class="cls-3" d="M272.37,383.41v-.3a.55.55,0,0,1,.44-.54c.25-.06.45.08.54.4s.19.78.26,1.17a.43.43,0,0,1-.26.5c-.25.1-.53.12-.67-.15a9.32,9.32,0,0,1-.37-1.05Z"/><path class="cls-3" d="M266.79,374.67a1.59,1.59,0,0,1,1.27.55.44.44,0,0,1,0,.62.49.49,0,0,1-.59.22,7.09,7.09,0,0,1-.87-.44.45.45,0,0,1-.2-.59A1.72,1.72,0,0,1,266.79,374.67Z"/><path class="cls-3" d="M263.67,374.55c-.41,0-.75-.18-.79-.45a.75.75,0,0,1,.13-.54c.26-.31.6-.18.9-.06a.62.62,0,0,1,.41.65A.6.6,0,0,1,263.67,374.55Z"/></g></g></g></g></svg>